<?xml version="1.0" encoding="UTF-8" standalone="no"?><!DOCTYPE svg PUBLIC "-//W3C//DTD SVG 1.1//EN" "http://www.w3.org/Graphics/SVG/1.1/DTD/svg11.dtd"><svg width="100%" height="100%" viewBox="0 0 1024 1024" version="1.1" xmlns="http://www.w3.org/2000/svg" xmlns:xlink="http://www.w3.org/1999/xlink" xml:space="preserve" style="fill-rule:evenodd;clip-rule:evenodd;stroke-linejoin:round;stroke-miterlimit:1.41421;"><path d="M255.691,781.559c6.018,-12.499 15.739,-18.748 29.163,-18.748l97.211,0l0,-436.756c0,-4.629 1.505,-8.448 4.514,-11.457c3.009,-3.008 6.828,-4.513 11.457,-4.513l352.737,0c6.944,0 8.796,1.852 11.457,4.513c2.662,2.662 4.514,6.127 4.514,11.457l0,97.212c0,3.551 -1.835,8.795 -4.497,11.457c-2.661,2.661 -7.925,4.513 -11.474,4.513l-239.556,0l0,323.574l97.211,0c13.425,0 23.146,6.249 29.164,18.748c6.018,12.499 4.629,24.072 -4.166,34.718l-161.787,193.728c-6.018,7.407 -14.235,11.11 -24.65,11.11c-10.416,0 -18.632,-3.703 -24.65,-11.11l-161.787,-193.728c-9.258,-11.11 -10.879,-22.683 -4.861,-34.718Z" style="fill:none;"/></svg>