<?xml version="1.0" encoding="UTF-8" standalone="no"?><!DOCTYPE svg PUBLIC "-//W3C//DTD SVG 1.1//EN" "http://www.w3.org/Graphics/SVG/1.1/DTD/svg11.dtd"><svg width="100%" height="100%" viewBox="0 0 1024 1024" version="1.1" xmlns="http://www.w3.org/2000/svg" xmlns:xlink="http://www.w3.org/1999/xlink" xml:space="preserve" style="fill-rule:evenodd;clip-rule:evenodd;stroke-linejoin:round;stroke-miterlimit:1.41421;"><path d="M69.141,512c3.383,0 4.595,1.15 6.596,4.178c42.418,64.202 96.252,120.541 159.74,164.205c45.122,31.033 94.572,55.468 147.398,70.242c31.302,8.754 63.503,14.148 95.93,16.289c54.505,3.599 109.677,-1.566 162.32,-16.289c125.398,-35.071 232.018,-122.861 304.07,-229.848c6.391,-9.491 7.732,-8.777 10.219,-8.777l61.156,0c9.598,0 7.408,1.519 5.637,10.142c-1.77,8.623 -4.848,20.932 -9.207,28.858c-39.382,64.981 -90.663,122.258 -151.219,168.188c-70.49,53.465 -152.463,92.903 -239.32,110.703c-72.582,14.874 -148.353,14.895 -220.922,-0.071c-161.041,-33.211 -305.221,-139.111 -390.539,-278.82c-6.119,-11.125 -9.685,-22.133 -10.698,-33.026c-0.459,-4.932 1.995,-5.974 3.99,-5.974l64.849,0Z" style="fill:none;"/></svg>