<?xml version="1.0" encoding="UTF-8" standalone="no"?>
<!DOCTYPE svg PUBLIC "-//W3C//DTD SVG 1.1//EN" "http://www.w3.org/Graphics/SVG/1.1/DTD/svg11.dtd">
<svg width="100%" height="100%" viewBox="0 0 1000 1000" version="1.1" xmlns="http://www.w3.org/2000/svg" xmlns:xlink="http://www.w3.org/1999/xlink" xml:space="preserve" style="fill-rule:evenodd;clip-rule:evenodd;stroke-linejoin:round;stroke-miterlimit:1.41421;">
    <g transform="matrix(0.652784,0,0,-0.652784,574.721,990.776)">
        <path d="M179,421L464,421L464,529C464,568.333 450,602 422,630C394,658 360.333,671.667 321,671C281.667,670.333 248,656.667 220,630C192,603.333 178.333,569.667 179,529L179,421ZM643,368L643,46C643,31.333 637.667,19 627,9C616.333,-1 603.667,-6.333 589,-7L54,-7C38.667,-7 26,-1.667 16,9C6,19.667 0.667,32 0,46L0,368C0,382.667 5.333,395.333 16,406C26.667,416.667 39.333,421.667 54,421L71,421L71,529C71,597 95.667,655.667 145,705C194.333,754.333 253,779 321,779C389,779 448,754.333 498,705C548,655.667 572.333,597 571,529L571,421L589,421C604.333,421 617,416 627,406C637,396 642.333,383.333 643,368Z" style="fill:none;"/>
    </g>
    <path d="M484.172,700.797C391.973,698.176 304.249,672.584 221,624.022C133,572.689 63,504.022 11,418.022C3.667,405.355 0,392.689 0,380.022C0,367.355 3.667,354.355 11,341.022C63,255.689 133,187.355 221,136.022C309,84.689 402,58.689 500,58.022C598,57.355 691,83.355 779,136.022C867,188.689 937,257.022 989,341.022C996.333,354.355 1000,367.355 1000,380.022C1000,392.689 996.333,405.355 989,418.022C981.407,430.58 973.43,442.768 965.07,454.586C953.479,443.666 941,433.685 927.716,424.899C920.934,420.414 913.944,416.241 906.773,412.409C914.468,401.942 921.877,391.146 929,380.022C872.333,292.022 801.333,226.355 716,183.022C738.667,221.689 750,263.355 750,308.022C750,335.632 746.066,361.679 738.198,386.163C730.882,387.433 723.621,389.017 716.444,390.92C707.045,393.411 697.791,396.446 688.745,400.011C680.203,403.376 671.847,407.213 663.724,411.493C655.146,416.012 646.829,421.024 638.814,426.48C624.182,436.439 610.577,447.873 598.098,460.419C585.996,472.586 574.95,485.812 565.292,500.002C560.443,507.125 555.945,514.486 551.832,522.058C547.45,530.123 543.507,538.427 540.031,546.922C538.811,549.904 537.649,552.91 536.545,555.938C524.7,557.448 512.519,558.142 500,558.022C430.667,557.355 371.667,533.022 323,485.022C274.333,437.022 250,378.022 250,308.022C250,263.355 261.333,221.689 284,183.022C198.667,226.355 127.667,292.022 71,380.022C121,456.022 183.333,516.689 258,562.022C332.667,607.355 413.333,630.022 500,630.022C507.213,630.022 514.386,629.865 521.521,629.551C521.355,632.44 521.235,635.331 521.161,638.224C521.12,639.829 521.094,641.435 521.078,643.041C521.075,643.578 521.072,644.114 521.069,644.651C521.067,646.046 521.068,647.441 521.068,648.836L520.908,648.976C520.099,649.693 519.294,650.414 518.5,651.147C517.32,652.236 516.158,653.346 515.017,654.475C509.355,660.073 504.162,666.148 499.54,672.632C495.316,678.557 491.57,684.823 488.361,691.354C486.843,694.446 485.445,697.597 484.172,700.797ZM527,165.022C527,157.689 524.333,151.355 519,146.022C513.667,140.689 507.333,138.355 500,139.022C453.333,139.022 413.333,155.689 380,189.022C346.667,222.355 330,262.022 330,308.022C330,315.355 332.667,321.689 338,327.022C343.333,332.355 349.667,335.022 357,335.022C364.333,335.022 370.667,332.355 376,327.022C381.333,321.689 384,315.355 384,308.022C384,276.022 395.333,248.689 418,226.022C440.667,203.355 468,192.022 500,192.022C507.333,192.022 513.667,189.355 519,184.022C524.333,178.689 527,172.355 527,165.022Z" style="fill:none;"/>
</svg>
